<svg id="Layer_1" data-name="Layer 1" xmlns="http://www.w3.org/2000/svg" xmlns:xlink="http://www.w3.org/1999/xlink" viewBox="0 0 560 288"><defs><style>.cls-1{fill:url(#radial-gradient);}.cls-2{fill:url(#radial-gradient-2);}</style><radialGradient id="radial-gradient" cx="334.64" cy="137.65" r="33.05" gradientUnits="userSpaceOnUse"><stop offset="0" stop-color="#0a0a0a"/><stop offset="1"/></radialGradient><radialGradient id="radial-gradient-2" cx="285.53" cy="135.22" r="193.93" xlink:href="#radial-gradient"/></defs><title>DoneBlack</title><path class="cls-1" d="M337.32,104.71A33.05,33.05,0,1,0,367.58,135,33.06,33.06,0,0,0,337.32,104.71Zm10.57,47.64a6.58,6.58,0,1,1,4.9-4.9A6.49,6.49,0,0,1,347.89,152.35Z"/><path class="cls-2" d="M407.83,97.24c-26.39-3.15-170.76-17.35-233.07,40.53a8.43,8.43,0,0,0,.33,12.63c29.26,24.54,150.6,110.64,310.61,7.08a12.56,12.56,0,0,0,1.44-20C443.74,99.89,285.32-11.73,83,150a38.63,38.63,0,0,1-50.83-2.23h0a.62.62,0,0,1,0-.86c10.73-11.76,236.32-252.43,504.86-5a5.9,5.9,0,0,1-.15,9c-34.6,29.53-240.11,189.62-416.85-9.13a4.47,4.47,0,0,1,1-6.77c25.89-16.08,160.87-93.22,287.14-39A.61.61,0,0,1,407.83,97.24Z"/></svg>